<?xml version="1.0" standalone="no"?>
<!DOCTYPE svg PUBLIC "-//W3C//DTD SVG 20010904//EN"
 "http://www.w3.org/TR/2001/REC-SVG-20010904/DTD/svg10.dtd">
<svg version="1.0" xmlns="http://www.w3.org/2000/svg"
 width="512.000000pt" height="512.000000pt" viewBox="0 0 512.000000 512.000000"
 preserveAspectRatio="xMidYMid meet">
<metadata>
Created by potrace 1.11, written by Peter Selinger 2001-2013
</metadata>
<g transform="translate(0.000000,512.000000) scale(0.100000,-0.100000)"
fill="#000000" stroke="none">
<path d="M2395 5109 c-1025 -58 -1932 -757 -2259 -1742 -91 -274 -127 -502
-127 -807 0 -305 36 -533 127 -807 278 -836 958 -1460 1834 -1683 221 -56 552
-82 790 -61 350 30 620 105 925 256 283 140 496 295 712 519 340 351 561 763
667 1242 48 216 63 623 31 859 -76 569 -326 1078 -729 1481 -523 523 -1220
786 -1971 743z m319 -593 c33 -16 91 -60 132 -98 302 -287 531 -973 563 -1690
l7 -167 100 -103 c122 -128 215 -257 292 -408 144 -279 202 -517 202 -825 0
-153 -14 -326 -29 -353 -5 -8 -138 77 -428 273 l-421 285 -150 0 -150 0 -1
-77 c-1 -180 -58 -397 -152 -586 -38 -76 -111 -197 -120 -197 -7 0 -79 153
-117 250 -68 174 -112 358 -128 533 l-6 77 -158 0 -158 0 -421 -285 c-232
-157 -425 -285 -429 -285 -19 0 -36 180 -36 365 1 219 21 353 80 538 90 280
274 577 467 754 l54 49 6 169 c21 561 191 1175 418 1511 96 143 196 234 309
281 80 34 192 29 274 -11z"/>
<path d="M2445 3978 c-86 -16 -204 -79 -275 -145 -121 -113 -181 -249 -182
-413 -1 -159 55 -300 162 -407 109 -110 227 -163 380 -171 120 -6 188 8 292
60 228 114 355 373 304 618 -25 121 -83 225 -168 306 -41 38 -97 81 -125 97
-107 57 -261 79 -388 55z m230 -123 c200 -53 339 -233 338 -440 0 -173 -83
-314 -234 -402 -95 -54 -241 -70 -351 -38 -213 61 -355 286 -320 507 41 268
305 441 567 373z"/>
</g>
</svg>
